<?xml version="1.0" standalone="no"?>
<!DOCTYPE svg PUBLIC "-//W3C//DTD SVG 20010904//EN"
 "http://www.w3.org/TR/2001/REC-SVG-20010904/DTD/svg10.dtd">
<svg version="1.0" xmlns="http://www.w3.org/2000/svg"
 width="466.000000pt" height="466.000000pt" viewBox="0 0 466.000000 466.000000"
 preserveAspectRatio="xMidYMid meet">
<metadata>
Created by potrace 1.14, written by Peter Selinger 2001-2017
</metadata>
<g transform="translate(0.000000,466.000000) scale(0.100000,-0.100000)"
fill="#000000" stroke="none">
<path d="M0 2483 l0 -458 48 1 c26 1 52 2 57 3 7 1 11 63 10 182 0 99 3 183 8
186 5 3 46 6 90 7 l80 1 34 -55 c19 -30 68 -113 110 -185 42 -71 77 -132 79
-133 5 -6 113 -9 123 -3 4 3 -23 58 -62 121 -38 63 -77 127 -86 142 -9 15 -32
54 -53 86 -36 60 -36 60 -14 66 42 10 113 74 137 122 38 80 27 218 -23 274
-70 79 -141 98 -368 100 l-170 1 0 -458z m380 336 c47 -27 70 -52 77 -88 11
-56 10 -83 -4 -124 -25 -77 -94 -106 -250 -106 -57 0 -83 4 -84 12 -4 39 -5
314 -1 321 8 14 234 1 262 -15z"/>
<path d="M3925 2825 l0 -114 -212 2 -213 2 1 55 c2 102 2 100 -34 100 -33 0
-34 -1 -55 -74 -29 -94 -46 -104 -148 -83 -157 32 -296 -4 -346 -89 l-21 -35
-18 30 c-10 17 -37 42 -59 57 -119 79 -290 59 -380 -43 -38 -44 -80 -134 -80
-173 0 -11 -3 -20 -7 -20 -5 0 -8 60 -7 134 1 150 3 146 -71 136 l-40 -5 -1
-190 c-2 -296 -14 -344 -103 -389 -45 -24 -142 -23 -184 1 -62 36 -67 59 -67
336 0 136 -3 247 -7 248 -54 5 -103 2 -106 -6 -2 -5 -3 -125 -2 -265 1 -234 3
-259 22 -301 38 -86 97 -120 208 -122 92 -2 159 18 201 60 18 18 35 33 38 33
2 0 7 -18 11 -40 7 -41 7 -41 70 -43 l30 -1 0 146 c0 147 7 180 19 91 8 -61
54 -142 103 -181 83 -65 246 -86 376 -48 53 15 61 15 114 0 75 -22 204 -25
268 -7 92 27 155 86 155 146 0 28 10 16 16 -19 8 -47 52 -104 92 -121 43 -18
132 -23 182 -11 34 9 36 11 35 51 0 31 -4 41 -15 39 -45 -10 -118 -4 -143 12
-39 26 -45 66 -44 296 l2 205 203 0 c127 0 206 -4 210 -10 4 -5 7 -52 7 -102
l0 -93 -156 0 -156 0 -2 -50 -1 -50 58 -1 c31 0 102 0 157 0 l100 2 0 -145 c0
-121 2 -145 15 -149 8 -2 87 -2 175 -1 261 3 374 47 465 179 87 126 101 367
30 517 -46 99 -165 184 -289 208 -30 5 -131 10 -225 10 l-171 0 0 -115z m436
-17 c123 -57 179 -168 173 -341 -5 -129 -43 -213 -121 -273 -60 -46 -138 -66
-265 -68 l-108 -2 0 359 0 359 133 -4 c116 -3 139 -7 188 -30z m-1621 -199
c41 -23 66 -66 76 -129 6 -39 6 -40 -22 -41 -36 -1 -283 -1 -306 0 -44 2 21
140 82 172 47 26 122 25 170 -2z m538 0 c52 -18 53 -18 73 2 11 11 24 17 29
14 6 -4 10 -82 10 -188 -1 -179 -1 -181 -18 -147 -22 45 -86 88 -203 134 -144
58 -180 94 -155 155 6 13 24 30 41 37 41 19 158 15 223 -7z m-918 -186 c0 -5
-5 -15 -10 -23 -7 -12 -9 -10 -7 8 1 19 17 33 17 15z m619 -22 c15 -11 72 -38
128 -61 149 -62 190 -105 162 -172 -28 -69 -192 -84 -321 -29 -41 17 -44 17
-93 -2 -66 -25 -181 -33 -239 -17 -62 17 -112 68 -131 132 -8 28 -15 62 -15
74 l0 23 213 0 c116 0 222 0 235 0 18 1 22 7 22 36 0 41 3 42 39 16z"/>
<path d="M792 2713 c-26 -6 -50 -12 -53 -13 -3 0 -27 -19 -53 -41 -99 -87
-138 -237 -104 -404 20 -102 107 -200 201 -226 61 -18 211 -15 280 5 31 10 58
20 58 24 3 17 5 92 2 92 -1 0 -38 -10 -80 -21 -106 -29 -205 -23 -263 15 -48
32 -90 110 -90 168 l0 38 215 -2 215 -2 1 -26 c3 -120 60 -224 148 -274 47
-26 65 -30 125 -30 91 0 135 16 184 64 l38 39 -1 -197 c-1 -152 2 -198 12
-202 7 -3 33 -4 57 -2 l44 4 0 494 c1 456 -1 494 -16 495 -9 0 -30 2 -45 3
-22 1 -29 -3 -33 -24 -3 -14 -7 -36 -10 -49 l-5 -23 -29 31 c-50 52 -105 74
-185 74 -112 -1 -197 -52 -244 -148 l-19 -39 -22 43 c-60 119 -188 171 -328
134z m168 -106 c42 -28 68 -71 75 -125 l5 -42 -67 -1 c-190 -2 -275 -1 -280 5
-9 9 14 79 40 117 46 69 160 92 227 46z m560 4 c31 -15 67 -66 82 -117 6 -22
11 -84 11 -139 0 -177 -53 -246 -189 -246 -56 0 -107 20 -135 55 -45 54 -65
219 -40 316 17 62 56 119 94 136 36 16 137 13 177 -5z"/>
</g>
</svg>
